:FULLY-SPECIFIED
:FORCE-ALL-JOINTS-BE-3DOF
:DEGREES
510
root 5.93061 16.2541 -5.20544 -168.717 77.6965 -173.466
lfemur -24.8598 -16.1838 -22.5016
ltibia 53.9372 -0 0
lfoot -26.5601 -4.42311 -0.108329
ltoes 7.40288 -0 0
rfemur -58.3782 6.80115 4.19594
rtibia 59.2393 -0 0
rfoot 9.90887 9.85284 -0.00287782
rtoes -19.9515 0 0
lowerback 8.94164 0.181411 -0.565439
upperback 1.64407 0.433721 3.09707
thorax -3.33179 0.286155 3.49103
lowerneck -8.60854 -12.308 -3.89352
upperneck 11.727 -16.3573 2.66431
head 5.47773 -7.96477 0.188955
lclavicle -1.06847e-014 1.39149e-014 0
lhumerus -47.2085 -34.2021 117.848
lradius 57.4332 -0 0
lwrist 7.49658 0 0
lhand 4.59348 -0.947527 0.260896
lfingers 7.12502 -0 0
lthumb 29.9513 26.3504 0.16669
rclavicle -1.06847e-014 1.39149e-014 0
rhumerus -14.255 43.7496 -77.557
rradius 114.877 -0 0
rwrist -4.26383 0 0
rhand 6.11947 -12.4847 0.170969
rfingers 7.12502 -0 0
rthumb 31.4129 -39.5294 0.2412
511
root 5.99225 16.2106 -5.14789 -169.451 76.3207 -174.14
lfemur -25.0572 -15.5835 -22.548
ltibia 55.0104 -0 0
lfoot -26.7481 -3.7277 -0.131617
ltoes 6.37398 -0 0
rfemur -57.893 6.63776 3.57517
rtibia 57.8619 -0 0
rfoot 10.2729 10.0254 -0.0140127
rtoes -20.9951 0 0
lowerback 9.1727 0.241428 -0.419163
upperback 1.81545 0.558754 3.34211
thorax -3.29074 0.354928 3.65125
lowerneck -8.48753 -12.5717 -4.09391
upperneck 11.914 -16.7036 2.78383
head 5.55761 -8.12942 0.219008
lclavicle -1.06847e-014 1.39149e-014 0
lhumerus -46.9812 -33.9931 117.795
lradius 57.6752 -0 0
lwrist 8.04966 0 0
lhand 3.44444 -1.35632 0.315464
lfingers 7.12502 -0 0
lthumb 28.8492 26.081 0.201523
rclavicle -1.06847e-014 1.39149e-014 0
rhumerus -11.4783 42.0036 -76.3029
rradius 116.613 -0 0
rwrist -7.19807 0 0
rhand 4.75507 -12.9116 0.248946
rfingers 7.12502 -0 0
rthumb 30.1043 -40.1099 0.342655
512
root 6.05363 16.1645 -5.09053 -170.071 74.9375 -174.709
lfemur -25.2914 -14.9241 -22.6005
ltibia 56.136 -0 0
lfoot -26.9356 -2.98217 -0.153365
ltoes 5.30666 -0 0
rfemur -57.3216 6.45213 2.93151
rtibia 56.4592 -0 0
rfoot 10.6814 10.1952 -0.0278321
rtoes -22.1015 0 0
lowerback 9.40313 0.303152 -0.261169
upperback 1.99392 0.688921 3.59695
thorax -3.24263 0.426608 3.81421
lowerneck -8.357 -12.8405 -4.29889
upperneck 12.0936 -17.0577 2.90966
head 5.63628 -8.29759 0.250944
lclavicle -1.06847e-014 1.39149e-014 0
lhumerus -46.7444 -33.7557 117.719
lradius 57.9296 -0 0
lwrist 8.63442 0 0
lhand 2.20386 -1.79421 0.363767
lfingers 7.12502 -0 0
lthumb 27.6596 25.7952 0.232313
rclavicle -1.06847e-014 1.39149e-014 0
rhumerus -8.79638 40.0222 -75.2097
rradius 118.333 -0 0
rwrist -10.2623 0 0
rhand 3.21862 -13.4002 0.327444
rfingers 7.12502 -0 0
rthumb 28.6302 -40.7705 0.443901
513
root 6.11483 16.1161 -5.03342 -170.605 73.5524 -175.199
lfemur -25.5576 -14.2168 -22.6573
ltibia 57.3054 -0 0
lfoot -27.1241 -2.20103 -0.172819
ltoes 4.21215 -0 0
rfemur -56.6775 6.24779 2.27097
rtibia 55.0471 -0 0
rfoot 11.1208 10.3593 -0.0437474
rtoes -23.2575 0 0
lowerback 9.63208 0.36583 -0.0937644
upperback 2.17837 0.822675 3.85913
thorax -3.18808 0.500411 3.97881
lowerneck -8.21761 -13.1123 -4.50682
upperneck 12.2646 -17.4169 3.04118
head 5.71301 -8.46798 0.284694
lclavicle -1.06847e-014 1.39149e-014 0
lhumerus -46.5006 -33.4905 117.619
lradius 58.1923 -0 0
lwrist 9.24713 0 0
lhand 0.887549 -2.25431 0.40335
lfingers 7.12502 -0 0
lthumb 26.3976 25.4974 0.257507
rclavicle -1.06847e-014 1.39149e-014 0
rhumerus -6.23258 37.8479 -74.2949
rradius 120.029 -0 0
rwrist -13.4236 0 0
rhand 1.5376 -13.9411 0.400613
rfingers 7.12502 -0 0
rthumb 27.0168 -41.4989 0.537531
